{"title":"A.Bugs.Life.1998.1080p.BluRay.x265.CZFxP","uid":14062537,"size":763410390,"categoryP":"video","categoryS":"movies","magnet":"?xt=urn:btih:63981c2b151f354f1f68a135ef31c3e9233e701c&amp;dn=A.Bugs.Life.1998.1080p.BluRay.x265.CZFxP&amp;tr=udp%3A%2F%2Ftracker.leechers-paradise.org%3A6969&amp;tr=udp%3A%2F%2Fzer0day.ch%3A1337&amp;tr=udp%3A%2F%2Fopen.demonii.com%3A1337&amp;tr=udp%3A%2F%2Ftracker.coppersurfer.tk%3A6969&amp;tr=udp%3A%2F%2Fexodus.desync.com%3A6969","seeders":0,"leechers":1,"uploader":"clonezone","files":1,"time":1459128801,"description":"===============CLONE-ZONE FxP===============\r\nTHE GROUP THE FAILS TO DISAPPEAR 2000-2016\r\n===========================================\r\nTitle: A.Bugs.Life.1998.1080p.BluRay.x265.CZFxP\r\nRes : 1920x816\r\nCall our release boards!!!!!!!!!!!!!!!!!!!!\r\nClone-Zone FxP - Clone-Zone(dot)ws\r\n===============CLONE-ZONE FxP===============\r\nFormat : MPEG-4\r\nFormat profile : Base Media / Version 2\r\nCodec ID : mp42 (mp42/isom/hvc1)\r\nFile size : 728 MiB\r\nDuration : 1h 34mn\r\nOverall bit rate mode : Variable\r\nOverall bit rate : 1 073 Kbps\r\nEncoded date : UTC 2016-03-25 08:19:50\r\nTagged date : UTC 2016-03-25 11:44:25\r\ncovr : Unknown kind of value!\r\n\r\nVideo\r\nID : 1\r\nFormat : HEVC\r\nFormat/Info : High Efficiency Video Coding\r\nFormat profile :   @Main\r\nCodec ID : hvc1\r\nCodec ID/Info : High Efficiency Video Coding\r\nDuration : 1h 34mn\r\nBit rate : 940 Kbps\r\nWidth : 1 920 pixels\r\nHeight : 816 pixels\r\nDisplay aspect ratio : 2.35:1\r\nFrame rate mode : Constant\r\nFrame rate : 23.976 (24000/1001) fps\r\nColor space : YUV\r\nChroma subsampling : 4:2:0\r\nBit depth : 8 bits\r\nBits/(Pixel*Frame) : 0.025\r\nStream size : 638 MiB (88%)\r\nEncoded date : UTC 2016-03-25 08:19:50\r\nTagged date : UTC 2016-03-25 11:44:24\r\nColor range : Limited\r\nColor primaries : BT.709\r\nTransfer characteristics : BT.709\r\nMatrix coefficients : BT.709\r\n\r\nAudio\r\nID : 2\r\nFormat : AAC\r\nFormat/Info : Advanced Audio Codec\r\nFormat profile : LC\r\nCodec ID : 40\r\nDuration : 1h 34mn\r\nBit rate mode : Variable\r\nBit rate : 128 Kbps\r\nMaximum bit rate : 132 Kbps\r\nChannel(s) : 2 channels\r\nChannel positions : Front: L R\r\nSampling rate : 48.0 KHz\r\nFrame rate : 46.875 fps (1024 spf)\r\nCompression mode : Lossy\r\nStream size : 86.9 MiB (12%)\r\nTitle : English (aac 2.0)\r\nLanguage : English\r\nDefault : Yes\r\nAlternate group : 1\r\nEncoded date : UTC 2016-03-25 08:19:50\r\nTagged date : UTC 2016-03-25 11:42:02","torrent":{"xt":"urn:btih:63981c2b151f354f1f68a135ef31c3e9233e701c","amp;dn":"A.Bugs.Life.1998.1080p.BluRay.x265.CZFxP","amp;tr":["udp%3A%2F%2Ftracker.leechers-paradise.org%3A6969","udp%3A%2F%2Fzer0day.ch%3A1337","udp%3A%2F%2Fopen.demonii.com%3A1337","udp%3A%2F%2Ftracker.coppersurfer.tk%3A6969","udp%3A%2F%2Fexodus.desync.com%3A6969"],"infoHash":"63981c2b151f354f1f68a135ef31c3e9233e701c","infoHashBuffer":{"type":"Buffer","data":[99,152,28,43,21,31,53,79,31,104,161,53,239,49,195,233,35,62,112,28]},"announce":[],"urlList":[]}}